<?xml version="1.0" encoding="utf-8"?>
<!-- Generator: Adobe Illustrator 18.1.0, SVG Export Plug-In . SVG Version: 6.00 Build 0)  -->
<svg version="1.1" id="Calque_1" xmlns="http://www.w3.org/2000/svg" xmlns:xlink="http://www.w3.org/1999/xlink" x="0px" y="0px"
	  width="70px" height="50px" viewBox="0 0 70 50" enable-background="new 0 0 70 50" xml:space="preserve">
<g id="Page-1">
	<g id="visa">
		<path id="Combined-Shape" fill="#05589F" d="M32.6,33h-4l2.5-15.6h4L32.6,33z M47.2,17.9c-0.8-0.3-2.1-0.7-3.6-0.7
			c-4,0-6.8,2.1-6.8,5.1c0,2.2,2,3.5,3.5,4.2c1.6,0.8,2.1,1.3,2.1,1.9c0,1-1.3,1.5-2.4,1.5c-1.6,0-2.5-0.2-3.8-0.8l-0.5-0.2
			l-0.6,3.5c0.9,0.4,2.7,0.8,4.5,0.8c4.2,0,7-2.1,7-5.3c0-1.8-1.1-3.1-3.4-4.2c-1.4-0.7-2.3-1.2-2.3-1.9s0.7-1.3,2.3-1.3
			c1.3,0,2.3,0.3,3,0.6l0.4,0.2L47.2,17.9z M52.5,27.5c0.3-0.9,1.6-4.4,1.6-4.4s0.3-0.9,0.5-1.5l0.3,1.3c0,0,0.8,3.7,0.9,4.5
			L52.5,27.5L52.5,27.5z M57.5,17.5h-3.1c-1,0-1.7,0.3-2.1,1.3l-6,14.3h4.2c0,0,0.7-1.9,0.8-2.3h5.2c0.1,0.5,0.5,2.3,0.5,2.3h3.7
			L57.5,17.5z M25.2,17.5l-3.9,10.6l-0.4-2.2c-0.7-2.5-3-5.2-5.6-6.5L18.9,33h4.3l6.3-15.5L25.2,17.5L25.2,17.5z"/>
		<path id="path17" fill="#FAA71C" d="M17.6,17.5h-6.5L11,17.8c5,1.3,8.4,4.4,9.8,8.1l-1.4-7.1C19.2,17.8,18.5,17.5,17.6,17.5z"/>
	</g>
</g>
</svg>
