<?xml version="1.0" encoding="utf-8"?>
<!-- Generator: Adobe Illustrator 18.1.0, SVG Export Plug-In . SVG Version: 6.00 Build 0)  -->
<svg version="1.1" id="Calque_1" xmlns="http://www.w3.org/2000/svg" xmlns:xlink="http://www.w3.org/1999/xlink" x="0px" y="0px"
	 width="70px" height="50px" viewBox="-114 126 70 50" enable-background="new -114 126 70 50" xml:space="preserve">
<title>mastercard</title>
<desc>Created with Sketch.</desc>
<g id="Page-1">
	<g id="CREDIT-CARDS" transform="translate(-198.000000, -96.000000)">
		<g id="mastercard" transform="translate(198.000000, 96.000000)">
			<path id="XMLID_1775_" d="M-94.3,169.5V167c0-0.9-0.6-1.6-1.6-1.6c-0.5,0-1,0.2-1.4,0.7c-0.3-0.5-0.7-0.7-1.3-0.7
				c-0.4,0-0.8,0.1-1.2,0.6v-0.5h-0.9v4h0.9v-2.2c0-0.7,0.4-1,0.9-1c0.6,0,0.9,0.4,0.9,1v2.2h0.9v-2.2c0-0.7,0.4-1,0.9-1
				c0.6,0,0.9,0.4,0.9,1v2.2H-94.3z M-81.5,165.6h-1.4v-1.2h-0.9v1.2h-0.8v0.8h0.8v1.8c0,0.9,0.4,1.4,1.4,1.4c0.4,0,0.8-0.1,1.1-0.3
				l-0.2-0.7c-0.2,0.2-0.5,0.2-0.7,0.2c-0.4,0-0.6-0.2-0.6-0.7v-1.8h1.4v-0.7H-81.5z M-74.1,165.5c-0.5,0-0.8,0.2-1,0.6v-0.5H-76v4
				h0.9v-2.2c0-0.7,0.3-1,0.8-1c0.2,0,0.4,0,0.5,0.1l0.2-0.8C-73.7,165.5-74,165.5-74.1,165.5L-74.1,165.5z M-85.2,165.9
				c-0.4-0.3-1-0.4-1.6-0.4c-1,0-1.6,0.5-1.6,1.3c0,0.7,0.5,1,1.4,1.2h0.4c0.5,0.1,0.7,0.2,0.7,0.4c0,0.3-0.3,0.5-0.9,0.5
				c-0.6,0-1-0.2-1.3-0.4l-0.4,0.7c0.5,0.3,1.1,0.5,1.7,0.5c1.2,0,1.8-0.5,1.8-1.3c0-0.7-0.5-1.1-1.4-1.2h-0.4
				c-0.4,0-0.7-0.1-0.7-0.4c0-0.3,0.3-0.5,0.7-0.5c0.5,0,1,0.2,1.2,0.3L-85.2,165.9z M-62.2,165.5c-0.5,0-0.8,0.2-1,0.6v-0.5h-0.9v4
				h0.9v-2.2c0-0.7,0.3-1,0.8-1c0.2,0,0.4,0,0.5,0.1l0.2-0.8C-61.8,165.5-62.1,165.5-62.2,165.5L-62.2,165.5z M-73.3,167.5
				c0,1.2,0.8,2.1,2.1,2.1c0.6,0,1-0.1,1.4-0.5l-0.4-0.7c-0.3,0.2-0.7,0.4-1,0.4c-0.7,0-1.2-0.5-1.2-1.3c0-0.7,0.5-1.2,1.2-1.3
				c0.4,0,0.7,0.1,1,0.4l0.4-0.7c-0.4-0.3-0.8-0.5-1.4-0.5C-72.5,165.5-73.3,166.3-73.3,167.5L-73.3,167.5z M-65.3,167.5v-2h-0.9
				v0.5c-0.3-0.4-0.7-0.6-1.2-0.6c-1.1,0-2,0.9-2,2.1s0.9,2.1,2,2.1c0.6,0,1-0.2,1.2-0.6v0.5h0.9V167.5z M-68.5,167.5
				c0-0.7,0.5-1.3,1.2-1.3s1.2,0.5,1.2,1.3c0,0.7-0.5,1.3-1.2,1.3S-68.5,168.2-68.5,167.5L-68.5,167.5z M-78.8,165.5
				c-1.2,0-2,0.8-2,2.1s0.8,2.1,2,2.1c0.6,0,1.2-0.2,1.6-0.5l-0.4-0.6c-0.3,0.2-0.7,0.4-1.2,0.4s-1.1-0.2-1.2-0.9h2.9v-0.3
				C-76.9,166.3-77.7,165.5-78.8,165.5L-78.8,165.5z M-78.8,166.2c0.5,0,0.9,0.3,1,0.9h-2.1C-79.8,166.6-79.4,166.2-78.8,166.2
				L-78.8,166.2z M-57.3,167.5V164h-0.9v2.1c-0.3-0.4-0.7-0.6-1.2-0.6c-1.1,0-2,0.9-2,2.1s0.9,2.1,2,2.1c0.6,0,1-0.2,1.2-0.6v0.5
				h0.9V167.5z M-60.5,167.5c0-0.7,0.5-1.3,1.2-1.3s1.2,0.5,1.2,1.3c0,0.7-0.5,1.3-1.2,1.3C-60.1,168.8-60.5,168.2-60.5,167.5
				L-60.5,167.5z M-89.4,167.5v-2h-0.9v0.5c-0.3-0.4-0.7-0.6-1.2-0.6c-1.1,0-2,0.9-2,2.1s0.9,2.1,2,2.1c0.6,0,1-0.2,1.2-0.6v0.5h0.9
				V167.5z M-92.6,167.5c0-0.7,0.5-1.3,1.2-1.3s1.2,0.5,1.2,1.3c0,0.7-0.5,1.3-1.2,1.3C-92.2,168.8-92.6,168.2-92.6,167.5z"/>
			<g id="XMLID_328_" transform="translate(11.000000, 7.000000)">
				<rect id="Rectangle-path" x="-96.5" y="128.5" fill="#FF5F00" width="13" height="23.3"/>
				<path id="XMLID_330_" fill="#EB001B" d="M-95.7,140.2c0-4.7,2.2-8.9,5.6-11.7c-2.5-2-5.7-3.2-9.1-3.2c-8.2,0-14.8,6.6-14.8,14.8
					s6.6,14.8,14.8,14.8c3.5,0,6.6-1.2,9.1-3.2C-93.5,149.2-95.7,144.9-95.7,140.2z"/>
				<path id="Shape" fill="#F79E1B" d="M-66,140.2c0,8.2-6.6,14.8-14.8,14.8c-3.5,0-6.6-1.2-9.1-3.2c3.5-2.7,5.6-6.9,5.6-11.7
					c0-4.7-2.2-8.9-5.6-11.7c2.5-2,5.7-3.2,9.1-3.2C-72.7,125.4-66,132-66,140.2z"/>
			</g>
		</g>
	</g>
</g>
</svg>
