<?xml version="1.0" encoding="utf-8"?>
<!-- Generator: Adobe Illustrator 18.1.0, SVG Export Plug-In . SVG Version: 6.00 Build 0)  -->
<svg version="1.1" id="Calque_1" xmlns="http://www.w3.org/2000/svg" xmlns:xlink="http://www.w3.org/1999/xlink" x="0px" y="0px"
	  width="70px" height="50px" viewBox="0 0 70 50" enable-background="new 0 0 70 50" xml:space="preserve">
<g id="Page-1">
	<g id="maestro">
		<path id="Shape" fill="#010101" d="M25.7,44.3v-2.5c0-0.4-0.1-0.8-0.4-1.1s-0.7-0.5-1.1-0.4c-0.6,0-1.1,0.2-1.4,0.7
			c-0.3-0.5-0.8-0.7-1.3-0.7s-0.9,0.2-1.2,0.6v-0.5h-0.9v3.9h0.9v-2.2c0-0.3,0-0.5,0.2-0.8c0.2-0.2,0.5-0.3,0.7-0.3
			c0.6,0,0.9,0.4,0.9,1v2.2H23V42c0-0.3,0.1-0.5,0.2-0.7c0.2-0.2,0.5-0.3,0.7-0.3c0.6,0,0.9,0.4,0.9,1v2.2h0.9V44.3z M30.6,42.4v-2
			h-0.9v0.5c-0.3-0.4-0.8-0.6-1.2-0.6c-1.1,0-2.1,0.9-2.1,2.1s0.9,2.1,2.1,2.1c0.5,0,0.9-0.2,1.2-0.6v0.5h0.9V42.4z M27.4,42.4
			c0-0.6,0.6-1.1,1.2-1.1s1.2,0.6,1.1,1.2s-0.5,1.2-1.2,1.2c-0.3,0-0.7-0.1-0.9-0.4C27.5,43,27.4,42.7,27.4,42.4L27.4,42.4z
			 M48.9,40.3c0.3,0,0.6,0.1,0.8,0.2c0.3,0.1,0.5,0.2,0.7,0.4s0.3,0.4,0.4,0.7c0.2,0.5,0.2,1.1,0,1.6c-0.1,0.2-0.3,0.5-0.4,0.7
			c-0.2,0.2-0.4,0.3-0.7,0.4c-0.5,0.2-1.1,0.2-1.7,0c-0.2-0.1-0.5-0.2-0.7-0.4s-0.3-0.4-0.4-0.7c-0.2-0.5-0.2-1.1,0-1.6
			c0.1-0.2,0.3-0.5,0.4-0.7c0.2-0.2,0.4-0.3,0.7-0.4C48.3,40.4,48.6,40.3,48.9,40.3L48.9,40.3z M48.9,41.1c-0.2,0-0.3,0-0.5,0.1
			c-0.1,0.1-0.3,0.1-0.4,0.3c-0.1,0.1-0.2,0.3-0.3,0.4c-0.1,0.3-0.1,0.7,0,1c0.1,0.2,0.1,0.3,0.3,0.4c0.1,0.1,0.2,0.2,0.4,0.3
			c0.3,0.1,0.7,0.1,1,0c0.2-0.1,0.3-0.1,0.4-0.3c0.1-0.1,0.2-0.3,0.3-0.4c0.1-0.3,0.1-0.7,0-1c-0.1-0.2-0.1-0.3-0.3-0.4
			c-0.1-0.1-0.3-0.2-0.4-0.3C49.2,41.2,49,41.1,48.9,41.1L48.9,41.1z M35.2,42.4c0-1.2-0.8-2.1-1.9-2.1s-2,1-2,2.1s1,2,2.1,2
			c0.6,0,1.2-0.2,1.6-0.6l-0.4-0.6c-0.3,0.3-0.7,0.4-1.1,0.4c-0.6,0.1-1.1-0.4-1.2-1h2.9C35.2,42.6,35.2,42.5,35.2,42.4z M32.3,42
			c0-0.5,0.5-1,1-1c0.3,0,0.5,0.1,0.7,0.3s0.3,0.4,0.3,0.7H32.3z M38.8,41.4c-0.4-0.2-0.8-0.3-1.2-0.3c-0.5,0-0.7,0.2-0.7,0.5
			s0.3,0.3,0.7,0.4l0.4,0.1c0.9,0.1,1.4,0.5,1.4,1.2s-0.7,1.3-1.8,1.3c-0.6,0-1.2-0.2-1.7-0.5l0.4-0.7c0.4,0.3,0.8,0.4,1.3,0.4
			c0.6,0,0.9-0.2,0.9-0.5c0-0.2-0.2-0.3-0.7-0.4l-0.4-0.1c-0.9-0.1-1.4-0.5-1.4-1.2c0-0.8,0.6-1.3,1.6-1.3c0.6,0,1.1,0.1,1.6,0.4
			L38.8,41.4z M42.9,41.2h-1.4V43c0,0.4,0.1,0.7,0.6,0.7c0.3,0,0.5-0.1,0.8-0.2l0.2,0.7c-0.3,0.2-0.7,0.3-1.1,0.3
			c-1,0-1.4-0.5-1.4-1.5v-1.8h-0.8v-0.8h0.8v-1.2h0.9v1.2h1.4V41.2z M45.9,40.3c0.2,0,0.4,0,0.6,0.1l-0.3,0.8
			c-0.2-0.1-0.4-0.1-0.5-0.1c-0.6,0-0.8,0.4-0.8,1v2.2H44v-3.9h0.8v0.5C45.1,40.5,45.5,40.3,45.9,40.3L45.9,40.3z M51.8,43.8
			c0.1,0,0.1,0,0.2,0c0,0,0.1,0,0.1,0.1l0.1,0.1c0,0.1,0,0.2,0,0.3l-0.1,0.1L52,44.5c0,0-0.1,0-0.2,0c-0.2,0-0.3-0.1-0.4-0.2
			c0-0.1,0-0.2,0-0.3l0.1-0.1l0.1-0.1C51.7,43.8,51.8,43.8,51.8,43.8L51.8,43.8z M51.8,44.5L51.8,44.5c0.1,0,0.2,0,0.2-0.1
			c0.1-0.1,0.1-0.2,0.1-0.3s-0.1-0.2-0.2-0.2h-0.1h-0.1c0,0-0.1,0-0.1,0.1c-0.1,0.1-0.1,0.3,0,0.4C51.7,44.4,51.7,44.4,51.8,44.5
			L51.8,44.5z M51.8,44L51.8,44l0.1,0.1v0.1h-0.1l0.1,0.1h-0.1l-0.1-0.1l0,0v0.1h-0.1V44H51.8z M51.8,44L51.8,44L51.8,44
			c0.1,0.1,0.1,0.1,0.1,0.1l0,0l0,0C51.9,44.1,51.9,44.1,51.8,44L51.8,44z M57.8,31.2v-0.5H58v-0.1h-0.5v0.1h0.2L57.8,31.2
			L57.8,31.2z M58.7,31.2v-0.6h-0.1L58.4,31l-0.2-0.4H58v0.6h0.1v-0.4l0.2,0.4h0.1l0.2-0.4v0.4H58.7z"/>
		<g id="_Group_" transform="translate(0.176471, 0.176471)">
			<rect id="Rectangle-path" x="28.6" y="10.2" fill="#7873B6" width="13" height="23.3"/>
			<path id="_Path_" fill="#EA1D25" d="M29.4,21.9c0-4.5,2.1-8.8,5.7-11.7c-6.1-4.8-14.8-4.1-20,1.6c-5.2,5.7-5.2,14.4,0,20.1
				c5.2,5.7,14,6.4,20,1.6C31.5,30.7,29.4,26.4,29.4,21.9z"/>
			<path id="Shape_1_" fill="#17A0DB" d="M59,21.9c0,5.7-3.2,10.8-8.3,13.3S39.5,37,35.1,33.5c3.6-2.8,5.7-7.1,5.7-11.7
				s-2.1-8.8-5.7-11.7c4.5-3.5,10.5-4.2,15.6-1.7S59,16.2,59,21.9L59,21.9z"/>
		</g>
	</g>
</g>
</svg>
