<svg width="70" height="50" viewBox="0 0 70 50" fill="none" xmlns="http://www.w3.org/2000/svg">
<path d="M9 40.8713V33.4277H11.2969C12.9664 33.4277 14.0404 34.0551 14.0404 35.3524C14.0404 36.0861 13.7001 36.5966 13.2216 36.8943C13.9127 37.2133 14.3168 37.83 14.3168 38.6701C14.3168 40.1695 13.2216 40.8713 11.5202 40.8713H9ZM10.4781 36.5221H11.5733C12.2433 36.5221 12.5304 36.1924 12.5304 35.5864C12.5304 34.9377 12.0093 34.725 11.3075 34.725H10.4781V36.5221ZM10.4781 39.574H11.3926C12.2858 39.574 12.8068 39.3506 12.8068 38.6488C12.8068 37.9577 12.3602 37.6706 11.5202 37.6706H10.4781V39.574ZM17.1832 40.9989C15.7264 40.9989 14.9926 40.2864 14.9926 39.3294C14.9926 38.2766 15.854 37.6599 17.13 37.6493C17.4471 37.6551 17.7634 37.6835 18.0764 37.7344V37.4791C18.0764 36.8305 17.7042 36.5221 16.9918 36.5221C16.5118 36.5161 16.0352 36.6027 15.5881 36.7773L15.3223 35.6289C15.7795 35.4375 16.5133 35.3099 17.1619 35.3099C18.7251 35.3099 19.5013 36.1393 19.5013 37.5748V40.531C19.0653 40.7543 18.2465 40.9989 17.1832 40.9989ZM18.0764 39.7973V38.6595C17.8285 38.6043 17.5754 38.5758 17.3214 38.5744C16.8323 38.5744 16.4495 38.7658 16.4495 39.2656C16.4495 39.7122 16.7685 39.9462 17.332 39.9462C17.5883 39.9545 17.8431 39.9036 18.0764 39.7973ZM20.5344 40.8713V35.7777C21.2986 35.4708 22.1142 35.312 22.9376 35.3099C24.4901 35.3099 25.3834 36.0755 25.3834 37.4898V40.8713H23.9159V37.5961C23.9159 36.8624 23.5756 36.5221 22.927 36.5221C22.6049 36.5176 22.2857 36.5829 21.9912 36.7135V40.8713H20.5344ZM30.5116 35.6289L30.2351 36.788C29.8552 36.6234 29.4473 36.5331 29.0335 36.5221C28.1722 36.5221 27.7043 37.1282 27.7043 38.1278C27.7043 39.2231 28.1934 39.7866 29.1079 39.7866C29.5161 39.7755 29.9176 39.6814 30.2883 39.5102L30.5222 40.6905C30.0407 40.9048 29.5178 41.0101 28.9909 40.9989C27.2258 40.9989 26.2049 39.9036 26.2049 38.1703C26.2049 36.4477 27.2151 35.3099 28.9059 35.3099C29.4571 35.3072 30.0032 35.4157 30.5116 35.6289ZM33.6817 40.9989C32.0441 40.9989 31.0233 39.8611 31.0233 38.1491C31.0233 36.4477 32.0441 35.3099 33.6817 35.3099C35.3299 35.3099 36.3295 36.4477 36.3295 38.1491C36.3295 39.8611 35.3299 40.9989 33.6817 40.9989ZM33.6817 39.7866C34.4367 39.7866 34.8301 39.1593 34.8301 38.1491C34.8301 37.1495 34.4367 36.5221 33.6817 36.5221C32.9374 36.5221 32.5226 37.1495 32.5226 38.1491C32.5226 39.1593 32.9374 39.7866 33.6817 39.7866ZM37.1787 40.8713V35.7777C37.9428 35.4708 38.7584 35.312 39.5819 35.3099C41.1344 35.3099 42.0276 36.0755 42.0276 37.4898V40.8713H40.5602V37.5961C40.5602 36.8624 40.2199 36.5221 39.5712 36.5221C39.2491 36.5176 38.9299 36.5829 38.6355 36.7135V40.8713H37.1787ZM45.337 40.9989C44.0716 40.9989 43.423 40.3077 43.423 38.904V36.6072H42.6999V35.4375H43.423V34.2571L44.8904 34.1827V35.4375H46.0707V36.6072H44.8904V38.8828C44.8904 39.4995 45.1456 39.7866 45.6241 39.7866C45.8138 39.7862 46.0028 39.7648 46.1877 39.7229L46.2622 40.9032C45.9585 40.9704 45.6481 41.0025 45.337 40.9989ZM49.041 40.9989C47.5841 40.9989 46.8504 40.2864 46.8504 39.3294C46.8504 38.2766 47.7118 37.6599 48.9878 37.6493C49.3049 37.6551 49.6211 37.6835 49.9342 37.7344V37.4791C49.9342 36.8305 49.562 36.5221 48.8495 36.5221C48.3696 36.5161 47.893 36.6027 47.4459 36.7773L47.1801 35.6289C47.6373 35.4375 48.371 35.3099 49.0197 35.3099C50.5828 35.3099 51.3591 36.1393 51.3591 37.5748V40.531C50.9231 40.7543 50.1043 40.9989 49.041 40.9989ZM49.9342 39.7973V38.6595C49.6863 38.6043 49.4332 38.5758 49.1792 38.5744C48.69 38.5744 48.3072 38.7658 48.3072 39.2656C48.3072 39.7122 48.6262 39.9462 49.1898 39.9462C49.4461 39.9545 49.7008 39.9036 49.9342 39.7973ZM56.3797 35.6289L56.1032 36.788C55.7234 36.6234 55.3155 36.5331 54.9016 36.5221C54.0403 36.5221 53.5724 37.1282 53.5724 38.1278C53.5724 39.2231 54.0616 39.7866 54.9761 39.7866C55.3842 39.7755 55.7858 39.6814 56.1564 39.5102L56.3904 40.6905C55.9089 40.9048 55.386 41.0101 54.8591 40.9989C53.0939 40.9989 52.0731 39.9036 52.0731 38.1703C52.0731 36.4477 53.0833 35.3099 54.774 35.3099C55.3253 35.3072 55.8714 35.4157 56.3797 35.6289ZM59.606 40.9989C58.3407 40.9989 57.692 40.3077 57.692 38.904V36.6072H56.9689V35.4375H57.692V34.2571L59.1594 34.1827V35.4375H60.3398V36.6072H59.1594V38.8828C59.1594 39.4995 59.4147 39.7866 59.8931 39.7866C60.0828 39.7862 60.2718 39.7648 60.4567 39.7229L60.5312 40.9032C60.2275 40.9704 59.9171 41.0025 59.606 40.9989Z" fill="#1E3764"/>
<path d="M19.2357 29.7068C27.0006 29.7068 30.8831 24.5302 34.7656 19.3535H9V29.7068H19.2357Z" fill="url(#paint0_linear)"/>
<path d="M50.2955 9C42.5306 9 38.6481 14.1766 34.7656 19.3533H60.5312V9H50.2955Z" fill="url(#paint1_linear)"/>
<defs>
<linearGradient id="paint0_linear" x1="14.2116" y1="25.0081" x2="33.0602" y2="18.0072" gradientUnits="userSpaceOnUse">
<stop stop-color="#005AB9"/>
<stop offset="1" stop-color="#1E3764"/>
</linearGradient>
<linearGradient id="paint1_linear" x1="36.3257" y1="20.2513" x2="56.339" y2="13.4232" gradientUnits="userSpaceOnUse">
<stop stop-color="#FBA900"/>
<stop offset="1" stop-color="#FFD800"/>
</linearGradient>
</defs>
</svg>
