<?xml version="1.0" encoding="utf-8"?>
<!-- Generator: Adobe Illustrator 18.1.0, SVG Export Plug-In . SVG Version: 6.00 Build 0)  -->
<svg version="1.1" id="Calque_1" xmlns="http://www.w3.org/2000/svg" xmlns:xlink="http://www.w3.org/1999/xlink" x="0px" y="0px"
	  width="70px" height="50px" viewBox="0 0 70 50" enable-background="new 0 0 70 50" xml:space="preserve">
<g id="Page-1">
	<g id="pay-pal">
		<g id="Shape-Clipped" transform="translate(1.000000, 1.000000)">
			<path id="Shape" fill="#253D80" d="M29.3,38.2l0.5-3.3h-1.2H23l3.9-24.5c0-0.1,0.1-0.1,0.1-0.2c0.1,0,0.1-0.1,0.2-0.1h9.4
				c3.1,0,5.3,0.6,6.4,1.9c0.5,0.6,0.9,1.2,1,1.9c0.2,0.7,0.2,1.6,0,2.6v0.1v0.7l0.5,0.3c0.4,0.2,0.8,0.5,1.1,0.8
				c0.5,0.5,0.7,1.2,0.9,1.9c0.1,0.8,0.1,1.7-0.1,2.8c-0.2,1.2-0.6,2.3-1.2,3.2c-0.5,0.8-1.1,1.5-1.8,2c-0.7,0.5-1.5,0.9-2.5,1.1
				c-0.9,0.2-1.9,0.4-3.1,0.4h-0.7c-0.5,0-1,0.2-1.4,0.5S35,31.1,35,31.6l-0.1,0.3L34,37.8V38c0,0.1,0,0.1-0.1,0.1h-0.1h-4.5V38.2z"
				/>
		</g>
		<g id="Shape-Clipped_1_" transform="translate(6.000000, 7.000000)">
			<path id="Shape_1_" fill="#189BD7" d="M40,10.7c0,0.2-0.1,0.4-0.1,0.5c-1.2,6.4-5.5,8.5-10.9,8.5h-2.8c-0.7,0-1.2,0.5-1.3,1.1
				l-1.4,8.9l-0.4,2.5C23,32.6,23.4,33,23.8,33h4.9c0.6,0,1.1-0.4,1.2-1v-0.2l0.9-5.8l0.1-0.3c0.1-0.6,0.6-1,1.2-1h0.7
				c4.7,0,8.4-1.9,9.5-7.5c0.5-2.3,0.2-4.3-1-5.6C41,11.3,40.6,10.9,40,10.7z"/>
		</g>
		<g id="Shape-Clipped_2_" transform="translate(8.000000, 6.000000)">
			<path id="Shape_2_" fill="#242F65" d="M36.8,11.2c-0.2-0.1-0.4-0.1-0.6-0.1S35.8,11,35.6,11c-0.7-0.1-1.6-0.2-2.4-0.2h-7.4
				c-0.2,0-0.4,0-0.5,0.1c-0.3,0.2-0.6,0.5-0.7,0.9L23,21.7V22c0.1-0.7,0.7-1.1,1.3-1.1h2.8c5.4,0,9.6-2.2,10.9-8.5
				c0-0.2,0.1-0.4,0.1-0.5c-0.3-0.2-0.7-0.3-1-0.4C36.9,11.2,36.8,11.2,36.8,11.2z"/>
		</g>
		<g id="Shape-Clipped_3_">
			<path id="Shape_3_" fill="#253D80" d="M32.6,17.7c0.1-0.4,0.3-0.7,0.7-0.9c0.2-0.1,0.3-0.1,0.5-0.1h7.4c0.9,0,1.7,0.1,2.4,0.2
				c0.2,0,0.4,0.1,0.6,0.1s0.4,0.1,0.6,0.1c0.1,0,0.2,0.1,0.3,0.1c0.4,0.1,0.7,0.3,1,0.4c0.4-2.3,0-3.9-1.3-5.4
				c-1.4-1.6-3.9-2.3-7.2-2.3h-9.4c-0.7,0-1.2,0.5-1.3,1.1L23,35.8c-0.1,0.5,0.3,0.9,0.8,0.9h5.8l1.5-9.2L32.6,17.7z"/>
		</g>
	</g>
</g>
</svg>
