<?xml version="1.0" encoding="utf-8"?>
<!-- Generator: Adobe Illustrator 18.1.0, SVG Export Plug-In . SVG Version: 6.00 Build 0)  -->
<svg version="1.1" id="Calque_1" xmlns="http://www.w3.org/2000/svg" xmlns:xlink="http://www.w3.org/1999/xlink" x="0px" y="0px"
	  width="70px" height="50px" viewBox="0 0 70 50" enable-background="new 0 0 70 50" xml:space="preserve">
<g id="Page-1">
	<g id="hipay">
		<g id="Fill-1-Clipped">
			<path id="Fill-1" fill="#05ACDC" d="M28.6,19c-0.4-0.3-1-0.4-1.4-0.2c-1.7,1-3.4,1.8-5.2,2.5c1.1-4.3,2.2-8,2.2-8
				c0.2-0.7-0.2-1.3-0.8-1.6c-0.7-0.2-1.3,0.2-1.6,0.8c0,0.1-1.4,4.6-2.7,9.8c-1.1,0.3-2,0.6-3,0.7c-0.2,0.1-0.6,0.1-0.8,0.2
				c1.2-4.9,2.7-8.9,2.7-8.9c0.3-0.7,0-1.4-0.7-1.6s-1.4,0.1-1.6,0.7c-0.2,0.2-1.7,4.6-3,9.9H12c-0.7-0.1-1.3,0.3-1.4,1
				c-0.2,0.7,0.3,1.3,1,1.4c0.1,0.1,0.3,0.1,0.7,0.1c-0.2,0.9-0.3,1.9-0.5,2.9c-0.1,0.7,0.3,1.3,1.1,1.4h0.2c0.6,0,1.1-0.4,1.2-1.1
				c0.2-1.1,0.3-2.2,0.6-3.3c0.6-0.1,1.1-0.2,1.8-0.2c0.7-0.1,1.3-0.2,2-0.4c-0.3,1.4-0.7,2.7-0.9,4c-0.2,0.7,0.3,1.3,1,1.5H19
				c0.6,0,1.1-0.4,1.2-1c0.3-1.6,0.7-3.5,1.1-5.2c1.4-0.5,2.8-1.1,4.2-1.7c-0.3,0.8-0.6,1.7-0.8,2.5c-0.3,1.1-0.5,2-0.5,2.6
				c-0.1,1.1,0.2,2,1,2.5c0.2,0.1,0.4,0.2,0.7,0.2c0.4,0,0.8-0.2,1.1-0.6c0.3-0.5,0.2-1.1-0.2-1.6c0-0.2,0-1.1,0.6-3
				c0.5-1.6,1.2-3.4,1.7-4.8C29.1,19.9,29,19.4,28.6,19"/>
		</g>
		<g id="Fill-3-Clipped" transform="translate(19.000000, 1.000000)">
			<path id="Fill-3" fill="#05ACDC" d="M20.7,17.8c-0.8,0.7-2,1.4-3.7,2.1c-0.7,0.3-1.5,0.6-2.1,0.8l1.2-5.4
				c0.1-0.2,0.1-0.6,0.2-0.8h0.2c2-0.2,3.7,0.1,4.5,0.6c0.4,0.2,0.6,0.6,0.7,1C21.8,16.6,21.5,17.1,20.7,17.8z M24.1,15.6
				c-0.2-1.1-0.8-2-1.8-2.5c-1.3-0.9-3.4-1.2-6.1-1c-1.9,0.2-3.4,0.5-3.5,0.6c-0.7,0.2-1.1,0.8-0.9,1.5s0.8,1.1,1.5,0.9
				c0,0,0.1,0,0.3-0.1c-0.2,0.8-0.4,1.6-0.6,2.5l-1,4.2c-0.6,0.2-0.9,0.2-0.9,0.2c-0.7,0.2-1.1,0.8-0.9,1.5c0.2,0.6,0.7,0.9,1.1,1
				c-0.1,0.3-0.2,0.6-0.2,0.9c-0.2,1-0.5,1.9-0.7,2.9c-0.2,0.7,0.2,1.4,0.9,1.6c0.7,0.2,1.4-0.2,1.6-0.9c0.5-1.7,0.9-3.4,1.3-5.2
				c1.1-0.3,2.5-0.8,3.8-1.4c1.8-0.8,3.3-1.6,4.3-2.5C24.2,18,24.4,16.6,24.1,15.6z"/>
		</g>
		<g id="Fill-4-Clipped" transform="translate(27.000000, 9.000000)">
			<path id="Fill-4" fill="#05ACDC" d="M16.8,14.2c-0.4,0.2-1.1,0.7-2,2c-0.6,0.8-1,1.6-1.2,2.5c0,0.2-0.1,0.2-0.1,0.3
				c0.3-0.1,1.1-0.4,2.4-1.6C16,16.3,16.4,15.1,16.8,14.2z M26,30.8h-0.2c-0.7-0.1-1.1-0.7-1.1-1.4c0.3-2.4,1.5-6.1,2.6-9.4
				l-0.2,0.2c-1.2,1-2.3,1.5-3.4,1.4c-0.8-0.1-1.5-0.5-1.9-1.2c-0.1-0.1-0.1-0.2-0.2-0.3c-0.8,0.7-1.7,1.1-2.8,1.4
				C18,21.7,17,22,16.2,21.3c-0.2-0.2-0.4-0.4-0.5-0.7c-0.3,0.2-0.7,0.4-1.1,0.6c-1.3,0.6-2.1,0.3-2.6,0.1c-1-0.6-1.4-1.9-1-3.2
				c0.3-1.1,0.9-2.3,1.6-3.4c1.6-2.1,3-3.2,4.5-3.2c1.1,0,1.9,0.5,2.2,1c0.3,0.4,0.3,0.9,0.2,1.3c-0.3,0.7-1.2,2.8-1.4,4.3V19h0.1
				c1.8-0.6,3-1.7,3.7-3c0.1-0.2,0.2-0.6,0.2-0.9c0.6-1.6,1.2-2.9,1.2-3c0.2-0.6,0.9-0.8,1.5-0.7c0.6,0.2,0.9,0.7,0.8,1.4
				c0,0.1-0.3,1.6-1.2,3.4c-0.1,0.2-0.2,0.4-0.3,0.6c-0.3,1.1-0.3,1.8-0.2,2c0.2,0,1.3-0.1,3.8-3.3c1.5-1.9,2.6-3.8,2.6-3.8
				c0.3-0.6,1.1-0.7,1.6-0.5c0.6,0.3,0.8,1,0.6,1.6c-0.1,0.1-4.8,11.7-5.4,16.6C27.1,30.4,26.6,30.8,26,30.8z"/>
		</g>
		<g id="Fill-6-Clipped" transform="translate(17.000000, 3.000000)">
			<path id="Fill-6" fill="#FCB918" d="M12.4,11.9c0.6,0.6,0.6,1.5,0,2s-1.4,0.5-2-0.1s-0.6-1.5,0-2C11,11.3,11.9,11.3,12.4,11.9"/>
		</g>
	</g>
</g>
</svg>
