<?xml version="1.0" encoding="UTF-8"?>
<!DOCTYPE svg PUBLIC "-//W3C//DTD SVG 1.0//EN" "http://www.w3.org/TR/2001/REC-SVG-20010904/DTD/svg10.dtd">
<!-- Creator: CorelDRAW X6 -->
<svg xmlns="http://www.w3.org/2000/svg" xml:space="preserve" width="210mm" height="65mm" version="1.0" style="shape-rendering:geometricPrecision; text-rendering:geometricPrecision; image-rendering:optimizeQuality; fill-rule:evenodd; clip-rule:evenodd"
viewBox="0 0 21000 6500"
 xmlns:xlink="http://www.w3.org/1999/xlink">
 <defs>
  <style type="text/css">
   <![CDATA[
    .fil0 {fill:#003620}
   ]]>
  </style>
 </defs>
 <g id="Слой_x0020_1">
  <metadata id="CorelCorpID_0Corel-Layer"/>
  <path class="fill" d="M1972 6360l-1613 0 2307 -4023 1248 -2192 1479 0 0 709 569 -709 1539 -5 0 3112 -1285 0 0 -802 -518 802 -1442 0 5 -817 -2288 3924 0 0zm9308 -3108l0 -3107 3000 0c444,5 393,1530 0,1530 407,0 439,1577 0,1577l-3000 0zm1230 -920l0 -164 823 0c102,0 102,164 0,164l-823 0zm0 -1150l0 -164 823 0c102,0 102,164 0,164 -259,0 -555,5 -823,0l0 0zm-4702 2070l-5 -3107 3143 0 0 1037 -1872 0 0 235 1872 0 0 662 -1872 0 0 164 1872 0 0 1009 -3139 0 0 0 0 0zm7038 0l-5 -3107 3143 0 0 1037 -1872 0 0 235 1872 0 0 662 -1872 0 0 164 1872 0 0 1009 -3139 0 0 0 0 0zm3425 0l-5 -3107 1276 0 -5 2098 1105 0 0 1009 -2371 0 0 0 0 0z"/>
 </g>
</svg>
